<svg width="22" height="24" viewBox="0 0 22 24" fill="none" xmlns="http://www.w3.org/2000/svg">
<path d="M21.2594 17.2434C20.6524 16.1978 19.75 13.2392 19.75 9.375C19.75 7.05436 18.8281 4.82876 17.1872 3.18782C15.5463 1.54687 13.3207 0.625 11 0.625C8.67937 0.625 6.45377 1.54687 4.81283 3.18782C3.17189 4.82876 2.25001 7.05436 2.25001 9.375C2.25001 13.2403 1.34658 16.1978 0.739545 17.2434C0.584529 17.5093 0.502348 17.8113 0.501292 18.119C0.500236 18.4267 0.580341 18.7293 0.733528 18.9962C0.886716 19.2631 1.10757 19.4848 1.37382 19.6391C1.64006 19.7934 1.94229 19.8748 2.25001 19.875H6.71361C6.91548 20.8628 7.45235 21.7506 8.23341 22.3882C9.01447 23.0258 9.99177 23.374 11 23.374C12.0083 23.374 12.9856 23.0258 13.7666 22.3882C14.5477 21.7506 15.0845 20.8628 15.2864 19.875H19.75C20.0576 19.8746 20.3597 19.7931 20.6258 19.6387C20.8919 19.4843 21.1126 19.2625 21.2657 18.9957C21.4187 18.7288 21.4987 18.4263 21.4976 18.1187C21.4965 17.8111 21.4144 17.5092 21.2594 17.2434ZM11 21.625C10.4573 21.6248 9.92801 21.4565 9.48495 21.1431C9.04189 20.8297 8.70685 20.3867 8.52595 19.875H13.4741C13.2932 20.3867 12.9581 20.8297 12.5151 21.1431C12.072 21.4565 11.5427 21.6248 11 21.625ZM2.25001 18.125C3.0922 16.6769 4.00001 13.3212 4.00001 9.375C4.00001 7.51848 4.73751 5.73801 6.05027 4.42525C7.36302 3.1125 9.1435 2.375 11 2.375C12.8565 2.375 14.637 3.1125 15.9498 4.42525C17.2625 5.73801 18 7.51848 18 9.375C18 13.318 18.9056 16.6736 19.75 18.125H2.25001Z" fill="black"/>
</svg>
