<svg width="14" height="8" viewBox="0 0 14 8" fill="none" xmlns="http://www.w3.org/2000/svg">
<path d="M7.08239 6.22241L12.448 0.864012C12.5001 0.81165 12.5621 0.770274 12.6305 0.742335C12.6989 0.714396 12.7722 0.700461 12.846 0.701356C12.9199 0.702251 12.9928 0.717958 13.0605 0.747547C13.1281 0.777135 13.1892 0.820003 13.24 0.873612C13.3441 0.983264 13.4013 1.12918 13.3995 1.28036C13.3977 1.43154 13.337 1.57606 13.2304 1.68321L7.46799 7.43761C7.41628 7.48967 7.35472 7.5309 7.2869 7.55888C7.21907 7.58687 7.14635 7.60105 7.07298 7.60061C6.99961 7.60016 6.92707 7.58509 6.85959 7.55628C6.79211 7.52747 6.73106 7.48549 6.67999 7.43281L0.763988 1.37601C0.659286 1.26758 0.600769 1.12274 0.600769 0.972012C0.600769 0.821283 0.659286 0.676441 0.763988 0.568012C0.815438 0.515032 0.876996 0.472914 0.945017 0.444154C1.01304 0.415393 1.08614 0.400574 1.15999 0.400574C1.23384 0.400574 1.30694 0.415393 1.37496 0.444154C1.44298 0.472914 1.50454 0.515032 1.55599 0.568012L7.08239 6.22241Z" fill="black"/>
</svg>
