<svg width="16" height="16" viewBox="0 0 16 16" fill="none" xmlns="http://www.w3.org/2000/svg">
<path d="M8.08245 10.2223L13.448 4.86395C13.5001 4.81159 13.5622 4.77021 13.6306 4.74227C13.6989 4.71433 13.7722 4.7004 13.8461 4.7013C13.9199 4.70219 13.9929 4.7179 14.0605 4.74749C14.1282 4.77707 14.1892 4.81994 14.24 4.87355C14.3441 4.9832 14.4014 5.12912 14.3996 5.2803C14.3978 5.43148 14.3371 5.576 14.2304 5.68315L8.46805 11.4375C8.41635 11.4896 8.35478 11.5308 8.28696 11.5588C8.21913 11.5868 8.14641 11.601 8.07304 11.6005C7.99967 11.6001 7.92713 11.585 7.85965 11.5562C7.79217 11.5274 7.73112 11.4854 7.68005 11.4328L1.76405 5.37595C1.65935 5.26752 1.60083 5.12268 1.60083 4.97195C1.60083 4.82122 1.65935 4.67638 1.76405 4.56795C1.8155 4.51497 1.87706 4.47285 1.94508 4.44409C2.0131 4.41533 2.0862 4.40051 2.16005 4.40051C2.2339 4.40051 2.307 4.41533 2.37502 4.44409C2.44304 4.47285 2.5046 4.51497 2.55605 4.56795L8.08245 10.2223Z" fill="black"/>
</svg>
